<svg width="32" height="32" viewBox="0 0 32 32" fill="none" xmlns="http://www.w3.org/2000/svg">
<path d="M16 32C24.8366 32 32 24.8366 32 16C32 7.16344 24.8366 0 16 0C7.16344 0 0 7.16344 0 16C0 24.8366 7.16344 32 16 32Z" fill="#B93EDF"/>
<path d="M18.3205 19.3929C17.8405 18.8864 16.9971 18.5616 16.0013 18.5616C15.0056 18.5616 14.1622 18.8864 13.6821 19.3929C13.4315 19.6573 13.299 19.9283 13.2573 20.3144C13.1765 21.0622 13.2219 21.7058 13.3095 22.7351C13.393 23.7158 13.5513 25.0236 13.7582 26.3556C13.9053 27.3036 14.0249 27.8152 14.1337 28.1817C14.3102 28.7754 14.9699 29.2947 16.0013 29.2947C17.0328 29.2947 17.6925 28.7753 17.869 28.1817C17.9778 27.8153 18.0975 27.3037 18.2445 26.3556C18.4514 25.0236 18.6097 23.716 18.6932 22.7351C18.7807 21.7058 18.8262 21.062 18.7453 20.3144C18.7037 19.9283 18.5712 19.6574 18.3205 19.3929ZM13.3851 14.8818C13.3851 16.3283 14.5576 17.5008 16.004 17.5008C17.4503 17.5008 18.6228 16.3283 18.6228 14.8818C18.6228 13.4355 17.4503 12.2629 16.004 12.2629C14.5576 12.2629 13.3851 13.4355 13.3851 14.8818ZM15.9715 4.54655C9.84643 4.56398 4.82778 9.5329 4.75185 15.6574C4.69043 20.6187 7.85735 24.8627 12.2797 26.4182C12.3872 26.456 12.4961 26.367 12.4791 26.2543C12.4212 25.8692 12.3666 25.482 12.3162 25.1014C12.2984 24.9668 12.2127 24.8508 12.0883 24.7965C8.59303 23.2695 6.15213 19.7638 6.1913 15.7032C6.24267 10.3741 10.5941 6.02974 15.9231 5.98663C21.3709 5.94263 25.8169 10.3615 25.8169 15.7993C25.8169 19.8193 23.3868 23.2819 19.9186 24.7968C19.7943 24.8511 19.7091 24.9674 19.6914 25.1017C19.6412 25.4822 19.5865 25.8692 19.5287 26.2542C19.5118 26.3667 19.6206 26.4558 19.7279 26.4181C24.1081 24.8774 27.2567 20.6995 27.2567 15.7993C27.2569 9.58377 22.1912 4.529 15.9715 4.54655ZM15.7682 9.70929C19.2402 9.57474 22.1078 12.3604 22.1078 15.8032C22.1078 17.554 21.366 19.1348 20.1803 20.248C20.0798 20.3424 20.0258 20.4764 20.0335 20.614C20.0572 21.0329 20.0485 21.4397 20.0207 21.8993C20.0132 22.0218 20.1505 22.1 20.2518 22.0308C22.2401 20.6721 23.5478 18.3876 23.5478 15.803C23.5478 11.5474 20.003 8.10402 15.7111 8.27036C11.7226 8.42487 8.52246 11.7135 8.47146 15.7047C8.43789 18.3299 9.75359 20.6553 11.7673 22.0312C11.8684 22.1003 12.0054 22.0218 11.998 21.8996C11.97 21.4397 11.9615 21.0328 11.985 20.614C11.9927 20.4765 11.9388 20.3426 11.8383 20.2483C10.6157 19.1004 9.86486 17.4554 9.91268 15.6395C9.99687 12.4436 12.5735 9.83303 15.7682 9.70929Z" fill="white"/>
</svg>
